<!-- icon666.com - MILLIONS vector ICONS FREE --><svg id="Layer_1" viewBox="0 0 512 512" xmlns="http://www.w3.org/2000/svg" data-name="Layer 1"><rect fill="#3fa9f5" height="440" rx="56" width="440" x="26" y="40"></rect><path d="m388.965 141.043c-3.151-5.529-7.367-6.269-13.242-4q-132.489 51.2-265.087 102.1c-5.82 2.237-7.6 5.127-7.6 11.186 2.417 3.387 85.3 84.525 88.583 85.786q3.4 10.877 6.784 21.756c2.155 6.929 120.485 121.467 120.743 122.129h90.854a56 56 0 0 0 56-56v-206.547c-2.219-1.717-77.035-76.239-77.035-76.41z" fill="#1a1a1a" opacity=".21"></path><path d="m388.965 141.043c0 1.695-34.374 167.682-48.194 234-2 9.623-7.161 11.705-15.192 5.874q-30.225-21.945-60.427-43.917c-8.469-6.158-11.933-5.957-20.166.846q-15.154 12.524-30.463 24.862c-8.216 6.605-13.031 5.1-16.121-4.833-7.602-24.453-15.317-48.875-22.702-73.388-1.169-3.88-3.08-5.925-6.775-7.261-18.753-6.776-37.425-13.756-56.125-20.664-3.7-1.369-7.343-2.843-9.76-6.23 0-6.058 1.781-8.949 7.6-11.187q132.575-50.972 265.088-102.1c5.872-2.271 10.086-1.531 13.237 3.998zm-64.517 45.782c-.771.41-86.4 53.034-128.083 78.812-6.278 3.883-8.554 8.757-6.7 15.559 4.258 15.583 8.918 31.056 13.349 46.593.61 2.137 1.208 4.236 3.828 4.27 3.256.043 3.405-2.786 3.739-4.945 1.094-7.082 2.276-14.176 2.819-21.311a26.3 26.3 0 0 1 9.008-18.139c28.423-26.255 97.466-90.491 103.622-96.291 2.021-1.9 1.858-4.88-1.582-4.548z" fill="#fff"></path></svg>